<svg width="170" height="65" viewBox="0 0 170 65" fill="none" xmlns="http://www.w3.org/2000/svg">
<path fill-rule="evenodd" clip-rule="evenodd" d="M168.874 24.8146C168.113 22.3852 167.053 20.1872 165.563 18.2701C164.074 16.3531 162.253 14.9648 160.101 13.9237C159.488 13.5931 158.743 13.2626 158.114 13.0973C158.114 13.0973 157.882 12.9651 157.667 12.9651C157.568 12.9651 157.452 12.9651 157.336 12.8494C157.253 12.8494 157.137 12.8494 157.137 12.7338L155.565 12.4032C154.406 12.2049 152.916 12.1058 151.194 12.2049C148.645 12.3206 146.394 12.866 144.407 13.7915C142.255 14.8491 140.434 16.3365 138.944 18.1214C137.454 20.0385 136.395 22.1373 135.633 24.6824C134.905 27.0953 134.574 29.8386 134.574 32.582C134.574 35.4411 134.905 38.0853 135.65 40.5147C136.411 42.9441 137.587 45.1421 138.961 46.9601C140.037 48.2326 141.196 49.2738 142.603 50.2323C143.232 50.662 143.761 50.976 144.424 51.29H144.506C144.506 51.29 144.606 51.29 144.606 51.3891C144.677 51.3891 144.71 51.4224 144.74 51.4532C144.767 51.4799 144.791 51.5048 144.838 51.5048C145.914 52.0337 147.089 52.3312 148.364 52.5625C152.088 53.2897 155.283 52.7774 155.283 52.7774C156.988 52.5625 158.594 52.0337 160.084 51.3891C162.319 50.3315 164.123 48.8606 165.63 47.0592C167.12 45.2744 168.179 43.0433 168.941 40.6139C169.669 38.1845 170 35.5403 170 32.6812C170 29.8386 169.57 27.1944 168.924 24.7485L168.874 24.8146ZM143.927 27.1323C144.357 25.4797 144.887 23.8766 145.632 22.6041C146.377 21.3482 147.337 20.2905 148.397 19.5634C149.473 18.8197 150.747 18.4065 152.121 18.4065C153.512 18.4065 154.687 18.704 155.763 19.4477C156.823 20.1748 157.667 21.1003 158.412 22.2901C159.157 23.5626 159.703 24.9343 160.117 26.6199C160.564 28.3056 160.779 30.0078 160.779 31.9083V32.5362C160.779 34.4367 160.564 36.3372 160.25 38.0229C159.819 39.725 159.289 41.1959 158.544 42.4849C157.799 43.7409 156.839 44.6828 155.763 45.4265C154.704 46.1702 153.446 46.4842 152.039 46.4842C150.648 46.4842 149.39 46.1537 148.314 45.4265C147.238 44.6828 146.278 43.7409 145.533 42.4518C144.771 41.1959 144.242 39.725 143.811 38.0229C143.397 36.3372 143.281 34.4367 143.281 32.5362C143.397 30.7184 143.613 28.8344 143.944 27.1488L143.927 27.1323ZM120.569 53.1409L116.43 57.884L116 58.3136L116.43 64.1309H122.82L129.541 56.628V32.7642L129.343 30.9463L120.569 35.4745V53.1409Z" fill="white"/>
<path fill-rule="evenodd" clip-rule="evenodd" d="M66.6959 11.029L62.5476 6.41944L62 6.02714L62.4314 0.175293L68.8199 0.273369L75.6896 7.69442V31.8374L75.4905 33.1777L66.6959 28.6009V11.029ZM125.57 17.5174C127.063 19.4136 128.125 21.5876 128.888 23.9905L128.921 23.9251C129.668 26.3443 130 28.9597 130 31.7712C130 34.599 129.668 37.2144 128.938 39.6173C128.175 42.0201 127.113 44.2268 125.619 45.9922C124.126 47.7739 122.301 49.2287 120.061 50.2749C118.567 50.9124 116.958 51.4354 115.248 51.6479C115.248 51.6479 112.046 52.1547 108.312 51.4354C107.035 51.2066 105.857 50.9124 104.795 50.3893C104.734 50.3893 104.705 50.3584 104.677 50.3288C104.652 50.3013 104.627 50.2749 104.579 50.2749C104.579 50.1768 104.463 50.1768 104.463 50.1768H104.38C103.716 49.8662 103.185 49.5556 102.554 49.1306C101.161 48.1826 99.9824 47.1528 98.9039 45.8941C97.5266 44.0961 96.3485 41.9221 95.5852 39.5192C94.8551 37.1163 94.5232 34.501 94.5232 31.6731C94.5232 28.9597 94.8385 26.2462 95.5686 23.8597C96.3319 21.3424 97.3939 19.2665 98.8873 17.3703C100.381 15.605 102.206 14.1338 104.363 13.0877C106.354 12.1723 108.611 11.6329 111.166 11.5185C112.892 11.4204 114.386 11.5185 115.547 11.7146L117.123 12.0415C117.123 12.156 117.24 12.156 117.323 12.156C117.455 12.2704 117.555 12.2704 117.654 12.2704C117.87 12.2704 118.102 12.4011 118.102 12.4011C118.733 12.5646 119.48 12.8915 120.094 13.2184C122.251 14.2482 124.076 15.6213 125.57 17.5174ZM105.691 21.8008C104.944 23.0595 104.413 24.645 103.998 26.2796L104.015 26.296C103.589 27.9421 103.47 29.7794 103.355 31.5562L103.351 31.6248C103.351 33.5046 103.45 35.3844 103.882 37.0517C104.313 38.7354 104.844 40.1902 105.591 41.4325C106.338 42.7075 107.3 43.6392 108.362 44.3747C109.441 45.094 110.718 45.4209 112.129 45.4209C113.506 45.4209 114.8 45.1103 115.862 44.3747C116.924 43.6392 117.887 42.7075 118.617 41.4651C119.364 40.1902 119.911 38.7354 120.326 37.0517C120.658 35.3844 120.89 33.5046 120.89 31.6248V31.0037C120.89 29.1239 120.658 27.4402 120.226 25.7729C119.795 24.1056 119.264 22.7489 118.517 21.4903C117.771 20.3133 116.908 19.398 115.862 18.6787C114.784 17.9432 113.606 17.6489 112.212 17.6489C110.801 17.6489 109.54 18.0576 108.478 18.7931C107.4 19.5124 106.437 20.5585 105.691 21.8008ZM80.4685 11.6831H89.429V52.1387H80.4685V11.6831Z" fill="white"/>
<path fill-rule="evenodd" clip-rule="evenodd" d="M84.8743 2.17529C82.5969 2.17529 80.7486 4.04211 80.7486 6.3423C80.7486 8.75917 82.5969 10.6093 84.8743 10.5093C87.1517 10.5093 89 8.64249 89 6.3423C89 4.04211 87.1517 2.17529 84.8743 2.17529ZM30.8934 19.1583C32.3786 21.0918 33.4348 23.3086 34.194 25.7588L34.227 25.6921C34.9696 28.159 35.2997 30.8259 35.2997 33.6927C35.2997 36.5763 34.9696 39.2432 34.2435 41.6933C33.4843 44.1435 32.4282 46.3937 30.9429 48.1938C29.4576 50.0106 27.6423 51.4941 25.4144 52.5608C23.9292 53.2109 22.3284 53.7442 20.6286 53.9609C20.6286 53.9609 17.4435 54.4776 13.7304 53.7442C12.4597 53.5109 11.288 53.2109 10.2153 52.6775C10.1748 52.6775 10.1509 52.6775 10.13 52.6695C10.0997 52.658 10.0758 52.6298 10.0172 52.5608C10.0172 52.4608 9.90173 52.4608 9.90173 52.4608H9.81921C9.1591 52.1441 8.631 51.8274 8.00389 51.3941C6.61765 50.4273 5.44595 49.3772 4.37326 48.0938C2.888 46.2603 1.83182 44.1435 1.07269 41.5933C0.330057 39.1431 0 36.4763 0 33.5927C0 30.8259 0.330058 28.059 1.05618 25.6255C1.81532 23.0586 2.8715 20.9418 4.35676 19.0083C5.84202 17.2082 7.65733 15.7081 9.80271 14.6413C11.7831 13.7079 14.0274 13.1579 16.5689 13.0412C18.2852 12.9412 19.7704 13.0412 20.9256 13.2412L22.4934 13.5746C22.4934 13.6912 22.6089 13.6912 22.6915 13.6912C22.8235 13.8079 22.9225 13.8079 23.0215 13.8079C23.236 13.8079 23.4671 13.9413 23.4671 13.9413C24.0942 14.1079 24.8368 14.4413 25.4474 14.7746C27.5928 15.8247 29.4081 17.2248 30.8934 19.1583ZM74.4775 25.7588C73.7183 23.3086 72.6622 21.0918 71.1769 19.1583C69.6916 17.2248 67.8763 15.8247 65.7309 14.7746C65.1203 14.4413 64.3777 14.1079 63.7506 13.9413C63.7506 13.9413 63.5196 13.8079 63.305 13.8079C63.206 13.8079 63.0905 13.8079 62.975 13.6912C62.8759 13.6912 62.7769 13.6912 62.7769 13.5746L61.1927 13.2412C60.0375 13.0412 58.5522 12.9412 56.8524 13.0412C54.311 13.1579 52.0666 13.7079 50.0862 14.6413C47.9408 15.7081 46.1255 17.2082 44.6403 19.0083C43.155 20.9418 42.0988 23.0586 41.3397 25.6255C40.6136 28.059 40.2835 30.8259 40.2835 33.5927C40.2835 36.4763 40.6136 39.1431 41.3562 41.5933C42.1153 44.0435 43.2705 46.2603 44.6568 48.0938C45.7295 49.3772 46.8847 50.4273 48.2874 51.3941C48.9145 51.8274 50.1852 52.4608 50.1852 52.4608C50.1852 52.4608 50.2843 52.4608 50.2843 52.5608C50.355 52.5608 50.3878 52.5943 50.4183 52.6254C50.4447 52.6524 50.4693 52.6775 50.5153 52.6775C51.588 53.2109 52.7432 53.5109 54.0304 53.7442C57.7435 54.4776 60.9286 53.9609 60.9286 53.9609C62.6284 53.7442 64.2292 53.2109 65.7144 52.5608C67.9423 51.4941 69.7411 50.0106 71.2429 48.1938C72.7282 46.3937 73.7843 44.1435 74.5435 41.6933C75.2696 39.2432 75.5832 36.5763 75.5832 33.6927C75.5832 30.8259 75.1706 28.159 74.527 25.6921L74.4775 25.7588ZM49.6076 28.0919C50.0367 26.4251 50.5648 24.8084 51.3074 23.525C52.0501 22.2583 53.0072 21.1916 54.0634 20.4582C55.1361 19.7082 56.4068 19.2915 57.7766 19.2915C59.1628 19.2915 60.3345 19.5915 61.4072 20.3415C62.4634 21.0749 63.305 22.0083 64.0477 23.2083C64.7903 24.4917 65.3184 25.8751 65.7474 27.5752C66.193 29.2753 66.4076 30.992 66.4076 32.9087V33.5421C66.4076 35.4589 66.193 37.3756 65.8795 39.0757C65.4504 40.7924 64.9223 42.2758 64.1797 43.5759C63.437 44.8426 62.4799 45.7926 61.4072 46.5427C60.351 47.2927 59.0968 47.6094 57.694 47.6094C56.3078 47.6094 55.0536 47.276 53.9809 46.5427C52.9082 45.7926 51.951 44.8426 51.2084 43.5425C50.4493 42.2758 49.9212 40.7924 49.4921 39.0757C49.0795 37.3756 48.964 35.4589 48.964 33.5421C49.0795 31.7087 49.2941 29.8086 49.6241 28.1085L49.6076 28.0919ZM9.43964 28.0919C9.85221 26.4251 10.3803 24.8084 11.1229 23.525C11.8656 22.2583 12.8227 21.1916 13.8954 20.4582C14.9516 19.7082 16.2058 19.2915 17.6086 19.2915C18.9948 19.2915 20.1665 19.5915 21.2392 20.3415C22.2789 21.0749 23.137 22.0083 23.8797 23.2083C24.6223 24.4917 25.1504 25.8751 25.5794 27.5752C26.0085 29.2753 26.2396 30.992 26.2396 32.9087L26.2066 33.5421C26.2066 35.4589 26.0085 37.3756 25.6785 39.0757C25.2659 40.7924 24.7213 42.2758 23.9787 43.5759C23.2525 44.8426 22.2954 45.7926 21.2392 46.5427C20.183 47.2927 18.8958 47.6094 17.526 47.6094C16.1233 47.6094 14.8526 47.276 13.7799 46.5427C12.7237 45.7926 11.7665 44.8426 11.0239 43.5425C10.3638 42.4925 9.86871 41.0091 9.42313 39.209C8.99406 37.4923 8.87854 35.5422 8.87854 33.6421C8.87854 31.7254 8.99406 29.8086 9.40663 28.1085L9.43964 28.0919Z" fill="white"/>
</svg>
