<?xml version="1.0" standalone="no"?>
<!DOCTYPE svg PUBLIC "-//W3C//DTD SVG 20010904//EN"
 "http://www.w3.org/TR/2001/REC-SVG-20010904/DTD/svg10.dtd">
<svg version="1.0" xmlns="http://www.w3.org/2000/svg"
 width="265.000000pt" height="265.000000pt" viewBox="0 0 265.000000 265.000000"
 preserveAspectRatio="xMidYMid meet">
<metadata>
Created by potrace 1.11, written by Peter Selinger 2001-2013
</metadata>
<g transform="translate(0.000000,265.000000) scale(0.100000,-0.100000)"
fill="#000000" stroke="none">
<path d="M1261 2549 c6 -12 5 -20 -2 -25 -8 -4 -7 -9 2 -15 9 -6 10 -9 2 -9
-7 0 -10 -11 -9 -27 3 -25 0 -29 -33 -33 -33 -5 -36 -8 -34 -36 1 -29 -1 -31
-30 -29 -34 3 -64 -8 -59 -22 2 -4 -5 -9 -15 -10 -15 -2 -15 -1 2 6 22 10 20
12 -11 16 -18 2 -21 -2 -18 -26 4 -30 -3 -34 -55 -29 -16 1 -21 -2 -16 -11 6
-8 4 -10 -6 -3 -12 7 -89 13 -89 7 0 -1 12 -9 28 -17 15 -8 21 -15 14 -16 -7
0 -11 -4 -8 -9 3 -5 -1 -12 -10 -15 -12 -5 -14 -1 -9 15 5 15 4 19 -4 15 -6
-4 -11 -15 -11 -24 0 -12 -3 -13 -12 -4 -8 8 -8 15 1 26 9 11 9 16 0 22 -7 4
-9 3 -5 -4 3 -6 1 -14 -5 -17 -5 -4 -8 -14 -5 -22 4 -9 0 -14 -12 -12 -44 4
-146 -2 -137 -9 10 -6 11 -20 5 -39 -1 -5 -2 -12 -1 -17 1 -5 -4 -4 -13 3 -10
8 -16 9 -21 1 -3 -6 -11 -8 -16 -4 -16 9 10 33 31 29 16 -3 18 -1 8 14 -6 10
-23 18 -37 18 -14 0 -20 -2 -13 -4 6 -3 9 -10 5 -16 -8 -12 -9 -18 -12 -38 -1
-8 -6 -8 -16 1 -10 8 -15 9 -15 2 0 -6 -7 -9 -15 -6 -12 5 -13 10 -4 20 6 8
15 12 19 9 11 -7 6 22 -5 32 -4 4 -5 3 -2 -3 4 -7 0 -18 -9 -25 -14 -11 -15
-10 -12 7 3 17 -4 19 -64 22 -45 2 -68 -1 -68 -8 0 -6 4 -9 9 -5 5 3 13 1 16
-5 4 -6 1 -9 -6 -8 -15 3 -23 -99 -8 -107 4 -3 5 -13 2 -22 -5 -13 -2 -15 11
-10 14 5 17 3 13 -8 -4 -8 -2 -17 4 -20 5 -4 8 -1 7 6 -2 6 3 14 10 16 7 3 11
-1 10 -9 -2 -8 8 -14 29 -16 37 -4 51 -29 26 -48 -10 -8 -13 -14 -8 -13 6 1
42 1 81 0 l71 -1 -1 -162 c-1 -90 -5 -169 -10 -177 -6 -9 -5 -12 0 -8 6 3 10
-5 10 -19 0 -13 -4 -25 -8 -25 -4 -1 -14 -2 -20 -3 -7 -1 -19 2 -26 8 -7 5
-12 5 -11 0 6 -34 -3 -74 -17 -74 -8 0 -12 -5 -9 -11 4 -6 -2 -5 -13 2 -25 16
-32 10 -35 -27 -2 -25 -7 -29 -30 -28 -15 1 -27 -2 -27 -5 0 -3 -30 -4 -67 -1
-66 5 -68 6 -70 34 -3 37 -9 42 -30 25 -9 -8 -14 -9 -11 -4 4 6 -11 10 -38 11
-24 0 -41 -3 -38 -8 3 -4 1 -8 -3 -8 -5 0 -9 -9 -10 -20 -1 -13 2 -18 9 -14 7
5 8 2 3 -7 -5 -7 -10 -34 -10 -59 -1 -25 0 -39 2 -32 6 17 20 15 20 -3 0 -8
-4 -15 -9 -15 -4 0 -8 -8 -8 -17 0 -15 2 -16 10 -3 5 8 10 10 10 5 0 -6 10
-11 22 -12 21 -2 71 -46 62 -55 -5 -6 6 -7 81 -13 33 -2 63 -4 67 -4 12 -2 6
-341 -6 -341 -8 0 -8 -2 0 -8 17 -11 13 -43 -5 -41 -42 4 -48 -1 -47 -33 0
-29 -3 -33 -24 -34 -14 0 -30 -3 -36 -7 -6 -3 -25 -5 -41 -3 -26 4 -30 1 -29
-19 1 -13 6 -28 10 -32 5 -5 6 -2 1 6 -6 10 -4 12 5 6 9 -6 11 -4 5 5 -6 9 -4
11 6 5 12 -8 12 -6 0 8 -9 11 -10 17 -2 17 6 0 11 -5 11 -11 0 -5 4 -8 9 -4 5
3 13 0 17 -6 4 -7 3 -9 -4 -5 -6 3 -13 2 -17 -4 -3 -5 2 -10 12 -10 15 0 16
-2 3 -10 -10 -6 -16 -6 -18 0 -2 6 -9 7 -15 3 -19 -12 -151 -11 -159 1 -4 6
-5 20 -2 31 5 19 0 21 -60 22 l-66 1 -1 -36 c-1 -35 -1 -54 2 -109 1 -19 29
-37 52 -34 4 1 7 -3 7 -8 0 -13 35 -20 51 -10 11 6 15 1 17 -17 1 -15 -2 -23
-8 -19 -6 4 -7 11 -4 17 4 7 2 8 -5 4 -9 -6 -9 -11 0 -22 7 -9 8 -14 1 -14 -6
0 -18 10 -26 22 -9 12 -16 17 -16 11 0 -17 30 -38 59 -41 14 -1 50 -2 78 -3
l53 -1 2 -231 3 -232 988 0 987 0 0 232 0 233 48 1 c26 1 58 0 71 -1 19 -1 23
2 19 18 -7 24 5 45 26 48 20 3 17 -26 -3 -42 -11 -9 -12 -12 -1 -19 8 -5 11
-4 7 2 -4 6 0 14 9 17 8 3 12 10 9 16 -3 5 6 15 20 22 15 7 24 17 20 25 -3 10
1 13 13 9 16 -5 19 0 20 34 1 22 2 43 3 47 1 5 1 25 0 45 l-1 38 -63 -2 -64
-2 2 -31 2 -31 -68 0 c-70 0 -73 2 -70 42 2 17 -3 22 -21 21 -18 -2 -23 -8
-23 -29 -1 -15 3 -24 7 -22 5 3 6 9 3 14 -3 4 1 13 8 19 11 8 14 4 14 -22 0
-17 -2 -26 -5 -19 -3 10 -7 10 -18 1 -11 -9 -16 -6 -23 12 -4 13 -6 30 -4 37
5 11 -21 17 -54 13 -14 -2 -16 9 -13 47 1 19 -3 22 -33 22 l-34 0 -1 195 c-1
148 1 195 11 196 6 0 37 2 67 3 33 2 54 7 53 13 -5 22 27 22 42 0 8 -12 15
-17 15 -11 0 5 -6 16 -12 23 -11 11 -10 13 5 8 11 -4 16 -3 12 3 -4 6 -17 8
-30 6 -13 -3 -26 1 -28 9 -4 9 4 12 29 9 35 -3 36 -2 36 49 1 19 4 25 11 18 5
-5 16 -7 25 -4 10 5 13 2 8 -6 -5 -7 -14 -10 -20 -8 -7 3 -13 -1 -13 -8 0 -8
7 -11 16 -7 13 5 14 3 4 -9 -10 -12 -8 -15 10 -16 12 0 16 1 9 4 -10 4 -8 9 5
19 17 13 17 14 -1 7 -17 -6 -17 -4 -4 18 12 21 14 50 9 129 -1 12 -14 15 -58
13 -32 0 -60 -2 -63 -2 -13 -2 -4 -41 10 -42 8 0 4 -5 -10 -11 -14 -6 -50 -9
-80 -8 -30 2 -68 3 -85 4 -19 1 -30 6 -30 16 0 8 -4 18 -8 21 -5 3 -1 9 8 12
9 4 13 3 10 -3 -3 -6 1 -7 9 -4 9 3 16 1 16 -5 0 -6 -3 -10 -7 -8 -5 1 -9 -1
-10 -6 -6 -17 -2 -19 14 -6 9 8 14 9 10 2 -8 -12 17 -12 30 1 4 4 1 6 -7 4 -9
-2 -14 4 -14 14 1 10 -2 15 -7 12 -5 -3 -9 -1 -9 4 0 4 -19 8 -42 7 -60 -2
-68 3 -68 40 0 29 -3 33 -21 30 -42 -8 -61 18 -30 43 14 10 14 11 1 7 -14 -5
-16 16 -16 170 l0 175 68 0 c55 0 68 3 68 16 0 9 -5 13 -12 9 -7 -4 -5 0 4 8
10 8 14 18 10 22 -4 5 -2 5 5 2 6 -4 14 -1 17 5 3 7 4 2 1 -12 -2 -14 1 -32 6
-40 9 -12 10 -11 5 4 -4 10 1 30 9 43 13 19 23 23 46 19 16 -2 29 0 29 6 0 6
-7 7 -16 4 -10 -4 -14 -2 -11 6 2 7 10 12 17 10 8 -2 10 3 7 13 -4 8 -3 15 1
15 5 0 8 28 8 63 l-1 62 -72 1 c-48 1 -71 -2 -70 -10 1 -6 -3 -10 -9 -9 -6 1
-11 -5 -11 -13 0 -11 4 -11 19 3 17 15 19 13 18 -14 -1 -13 -50 -22 -50 -10 0
7 -4 6 -10 -3 -8 -12 -10 -12 -11 5 0 11 -3 14 -6 8 -6 -16 -33 -17 -33 -2 0
5 4 7 10 4 6 -3 7 1 4 10 -4 11 -2 14 9 9 17 -6 32 12 17 21 -5 3 -10 1 -10
-5 0 -7 -5 -8 -12 -3 -14 9 -23 10 -115 13 -47 2 -63 6 -66 19 -4 15 -5 15 -6
0 -1 -11 -10 -16 -28 -16 -16 0 -22 2 -15 4 10 4 8 9 -5 19 -17 13 -17 13 0
14 9 0 17 4 17 10 0 5 -7 7 -15 4 -8 -4 -15 -2 -15 4 0 12 -43 10 -52 -3 -5
-6 -8 -5 -8 4 0 10 -8 12 -30 8 -18 -4 -30 -2 -30 4 0 6 -4 7 -10 4 -5 -3 -10
-1 -10 4 0 6 6 11 13 11 8 0 7 4 -3 10 -13 8 -13 10 -1 10 11 0 9 4 -5 14 -10
8 -20 10 -22 5 -4 -11 -54 0 -64 15 -5 8 -8 7 -8 -1 0 -7 -7 -10 -15 -7 -8 3
-14 9 -13 12 4 36 -4 53 -24 52 -41 -4 -45 0 -44 38 1 20 -3 40 -9 44 -6 5 -4
8 4 8 11 0 9 4 -5 15 -18 15 -18 15 0 8 13 -4 17 -3 12 5 -4 8 -31 11 -71 10
-57 -2 -63 -4 -54 -19z m273 -214 c3 -8 1 -15 -4 -15 -6 0 -10 7 -10 15 0 8 2
15 4 15 2 0 6 -7 10 -15z m-439 -23 c-3 -3 -11 0 -18 7 -9 10 -8 11 6 5 10 -3
15 -9 12 -12z m-125 -42 c0 -5 -5 -10 -11 -10 -5 0 -7 5 -4 10 3 6 8 10 11 10
2 0 4 -4 4 -10z m-274 -52 c4 -7 4 -10 -1 -6 -4 4 -15 2 -24 -5 -14 -11 -14
-10 -2 6 16 20 18 21 27 5z m1242 -13 c-6 -13 -15 -22 -21 -18 -5 3 -3 9 4 14
8 5 10 9 4 9 -5 0 -3 5 5 10 21 13 21 13 8 -15z m-1388 -15 c0 -5 -2 -10 -4
-10 -3 0 -8 5 -11 10 -3 6 -1 10 4 10 6 0 11 -4 11 -10z m-41 -85 c8 0 16 -6
18 -12 3 -8 -4 -12 -19 -11 -16 1 -25 9 -26 22 0 12 2 16 6 11 4 -6 13 -10 21
-10z m1641 -5 c0 -8 -22 -30 -31 -30 -4 0 -5 8 -2 18 4 17 33 27 33 12z
m-1830 -730 c5 8 8 2 8 -14 0 -14 -3 -26 -7 -26 -13 0 -27 15 -25 28 4 31 7
36 11 18 4 -14 7 -15 13 -6z m76 -78 c2 -27 2 -27 -26 3 l-24 25 25 -3 c16 -3
24 -11 25 -25z m2148 -520 c3 -5 -1 -9 -9 -9 -8 0 -12 4 -9 9 3 4 7 8 9 8 2 0
6 -4 9 -8z m-2408 -122 c-2 -3 -6 -13 -9 -23 -4 -10 -12 -15 -17 -12 -8 5 -7
12 2 23 11 13 11 14 -8 4 -16 -8 -21 -8 -21 2 0 8 11 13 28 12 15 0 26 -3 25
-6z m2421 -5 c0 -8 -4 -12 -9 -9 -4 3 -16 0 -25 -5 -11 -6 -13 -11 -5 -11 7 0
10 -5 6 -11 -10 -17 -24 12 -14 31 10 20 47 23 47 5z"/>
<path d="M1770 2301 c0 -7 -4 -10 -8 -7 -4 2 -9 -5 -9 -16 -2 -21 -2 -21 14 1
8 12 12 25 9 28 -3 4 -6 1 -6 -6z"/>
<path d="M533 2015 c0 -7 6 -11 14 -8 9 4 11 0 7 -11 -3 -9 -4 -16 -1 -16 15
0 14 31 -2 39 -13 7 -18 6 -18 -4z"/>
<path d="M1957 1643 c-8 -17 -1 -37 13 -40 10 -3 11 -2 4 4 -6 4 -10 16 -8 26
2 18 -2 23 -9 10z"/>
<path d="M675 1610 c3 -5 8 -10 11 -10 2 0 4 5 4 10 0 6 -5 10 -11 10 -5 0 -7
-4 -4 -10z"/>
<path d="M534 1513 c4 -8 2 -13 -6 -13 -10 0 -10 -2 0 -9 8 -4 13 -11 13 -15
-2 -16 0 -18 12 -7 8 6 17 8 20 5 4 -4 4 4 2 16 -5 26 -15 40 -15 20 0 -10 -4
-10 -17 1 -11 10 -14 10 -9 2z m36 -18 c0 -2 -6 -8 -13 -14 -10 -8 -14 -7 -14
2 0 8 6 14 14 14 7 0 13 -1 13 -2z"/>
<path d="M335 1270 c3 -5 11 -10 16 -10 6 0 7 5 4 10 -3 6 -11 10 -16 10 -6 0
-7 -4 -4 -10z"/>
<path d="M2150 910 c0 -5 5 -10 11 -10 5 0 7 5 4 10 -3 6 -8 10 -11 10 -2 0
-4 -4 -4 -10z"/>
<path d="M70 606 c0 -2 7 -7 16 -10 8 -3 12 -2 9 4 -6 10 -25 14 -25 6z"/>
</g>
</svg>
